<svg version="1.1" viewBox="0.0 0.0 566.9291338582677 151.1811023622047" fill="none" stroke="none" stroke-linecap="square" stroke-miterlimit="10" xmlns:xlink="http://www.w3.org/1999/xlink" xmlns="http://www.w3.org/2000/svg"><clipPath id="p.0"><path d="m0 0l566.92914 0l0 151.1811l-566.92914 0l0 -151.1811z" clip-rule="nonzero"/></clipPath><g clip-path="url(#p.0)"><path fill="#000000" fill-opacity="0.0" d="m0 0l566.92914 0l0 151.1811l-566.92914 0z" fill-rule="evenodd"/><path fill="#000000" fill-opacity="0.0" d="m149.36482 -29.480314l432.0 0l0 210.14174l-432.0 0z" fill-rule="evenodd"/><path fill="#d8c15e" d="m233.3531 80.88217q0 5.109375 -1.78125 9.40625q-1.765625 4.296875 -4.890625 7.40625q-3.125 3.109375 -7.421875 4.875q-4.296875 1.75 -9.34375 1.75l-27.421875 0q-1.09375 0 -2.03125 -0.390625q-0.9375 -0.390625 -1.625 -1.078125q-0.671875 -0.6875 -1.0625 -1.625q-0.390625 -0.9375 -0.390625 -2.03125l0 -45.78125q0 -1.046875 0.390625 -1.984375q0.390625 -0.9375 1.0625 -1.640625q0.6875 -0.703125 1.625 -1.09375q0.9375 -0.390625 2.03125 -0.390625l27.421875 0q5.046875 0 9.34375 1.765625q4.296875 1.75 7.421875 4.859375q3.125 3.09375 4.890625 7.421875q1.78125 4.3125 1.78125 9.390625l0 9.140625zm-10.15625 -9.140625q0 -2.96875 -0.953125 -5.421875q-0.953125 -2.46875 -2.71875 -4.203125q-1.75 -1.75 -4.203125 -2.703125q-2.4375 -0.953125 -5.40625 -0.953125l-22.375 0l0 35.703125l22.375 0q2.96875 0 5.40625 -0.953125q2.453125 -0.96875 4.203125 -2.703125q1.765625 -1.734375 2.71875 -4.171875q0.953125 -2.453125 0.953125 -5.453125l0 -9.140625zm29.296875 -18.328125l-10.15625 0l0 -9.171875l10.15625 0l0 9.171875zm0 50.90625l-10.15625 0l0 -42.234375l10.15625 0l0 42.234375zm50.554703 -14.265625q0 2.625 -0.671875 4.71875q-0.65625 2.078125 -1.75 3.671875q-1.09375 1.578125 -2.546875 2.6875q-1.4375 1.109375 -3.03125 1.8125q-1.578125 0.703125 -3.203125 1.046875q-1.609375 0.328125 -3.0625 0.328125l-27.5 0l0 -10.15625l27.421875 0q2.078125 0 3.125 -1.046875q1.0625 -1.0625 1.0625 -3.0625q-0.203125 -4.0625 -4.109375 -4.0625l-15.734375 0q-3.359375 0 -5.703125 -1.171875q-2.34375 -1.171875 -3.8125 -2.921875q-1.46875 -1.765625 -2.109375 -3.796875q-0.640625 -2.03125 -0.640625 -3.78125q0 -3.40625 1.203125 -5.71875q1.21875 -2.328125 3.046875 -3.765625q1.84375 -1.453125 3.984375 -2.09375q2.15625 -0.65625 4.03125 -0.65625l24.953125 0l0 10.15625l-24.875 0q-0.78125 0 -1.234375 0.1875q-0.453125 0.171875 -0.671875 0.46875q-0.203125 0.28125 -0.25 0.625q-0.03125 0.328125 -0.03125 0.640625q0.03125 0.625 0.21875 0.984375q0.203125 0.34375 0.5 0.5q0.296875 0.15625 0.65625 0.171875q0.375 0.015625 0.734375 0.015625l15.734375 0q3.90625 0 6.640625 1.40625q2.734375 1.40625 4.40625 3.546875q1.6875 2.125 2.453125 4.625q0.765625 2.5 0.765625 4.640625zm48.007812 14.265625l-27.546875 0q-2.109375 0 -4.609375 -0.734375q-2.5 -0.75 -4.625 -2.453125q-2.125 -1.703125 -3.5625 -4.40625q-1.421875 -2.71875 -1.421875 -6.671875l0 -13.75q0 -1.4375 0.328125 -3.03125q0.34375 -1.609375 1.046875 -3.1875q0.703125 -1.59375 1.8125 -3.03125q1.109375 -1.453125 2.6875 -2.546875q1.59375 -1.09375 3.65625 -1.75q2.078125 -0.671875 4.6875 -0.671875l27.546875 0l0 10.15625l-27.546875 0q-1.984375 0 -3.03125 1.015625q-1.03125 1.015625 -1.03125 3.125l0 13.671875q0 2.0 1.046875 3.0625q1.0625 1.046875 3.09375 1.046875l27.46875 0l0 10.15625zm54.328125 -14.265625q0 2.625 -0.671875 4.71875q-0.65625 2.078125 -1.75 3.671875q-1.09375 1.578125 -2.546875 2.6875q-1.4375 1.109375 -3.015625 1.8125q-1.578125 0.703125 -3.203125 1.046875q-1.625 0.328125 -3.0625 0.328125l-18.328125 0q-2.109375 0 -4.609375 -0.734375q-2.5 -0.75 -4.625 -2.453125q-2.125 -1.703125 -3.5625 -4.40625q-1.421875 -2.71875 -1.421875 -6.671875l0 -13.75q0 -3.90625 1.421875 -6.609375q1.4375 -2.71875 3.5625 -4.421875q2.125 -1.703125 4.625 -2.4375q2.5 -0.75 4.609375 -0.75l18.328125 0q3.90625 0 6.640625 1.40625q2.734375 1.40625 4.40625 3.546875q1.6875 2.125 2.4375 4.625q0.765625 2.5 0.765625 4.640625l0 13.75zm-10.15625 -13.671875q0 -2.109375 -1.0625 -3.125q-1.046875 -1.015625 -3.03125 -1.015625l-18.25 0q-2.03125 0 -3.09375 1.046875q-1.046875 1.03125 -1.046875 3.015625l0 13.75q0 2.0 1.046875 3.0625q1.0625 1.046875 3.09375 1.046875l18.25 0q2.0625 0 3.078125 -1.046875q1.015625 -1.0625 1.015625 -3.0625l0 -13.671875zm69.17969 -14.296875q-1.71875 5.359375 -4.03125 10.5625q-2.296875 5.1875 -5.28125 9.890625q-2.984375 4.703125 -6.6875 8.71875q-3.6875 4.0 -8.15625 6.90625q-4.46875 2.90625 -9.734375 4.578125q-5.25 1.65625 -11.375 1.65625q-1.0625 0 -2.0 -0.390625q-0.9375 -0.390625 -1.640625 -1.078125q-0.703125 -0.6875 -1.09375 -1.59375q-0.390625 -0.921875 -0.390625 -1.984375l0 -37.265625l10.15625 0l0 31.765625q3.71875 0 7.125 -1.59375q3.421875 -1.609375 6.46875 -4.25q3.046875 -2.640625 5.640625 -6.0q2.609375 -3.359375 4.640625 -6.890625q2.03125 -3.53125 3.453125 -6.921875q1.421875 -3.40625 2.125 -6.109375l10.78125 0zm49.070282 13.984375q0 2.109375 -0.75 4.5625q-0.7343445 2.4375 -2.4062195 4.53125q-1.65625 2.078125 -4.328125 3.484375q-2.671875 1.40625 -6.5 1.40625l-18.328125 0l0 -9.640625l18.328125 0q2.0625 0 3.1875 -1.265625q1.140625 -1.28125 1.140625 -3.15625q0 -1.984375 -1.265625 -3.109375q-1.265625 -1.140625 -3.0625 -1.140625l-18.328125 0q-2.0625 0 -3.203125 1.265625q-1.125 1.265625 -1.125 3.140625l0 14.1875q0 2.03125 1.265625 3.171875q1.265625 1.125 3.140625 1.125l18.25 0l0 9.6875l-18.328125 0q-2.109375 0 -4.546875 -0.734375q-2.4375 -0.75 -4.53125 -2.40625q-2.09375 -1.671875 -3.5 -4.34375q-1.40625 -2.671875 -1.40625 -6.5l0 -14.265625q0 -2.109375 0.734375 -4.546875q0.75 -2.4375 2.40625 -4.53125q1.671875 -2.09375 4.34375 -3.5q2.671875 -1.40625 6.5 -1.40625l18.328125 0q2.109375 0 4.546875 0.75q2.4375 0.734375 4.53125 2.40625q2.09375 1.65625 3.4999695 4.328125q1.40625 2.671875 1.40625 6.5zm43.78125 -3.828125l-22.84375 0q-2.078125 0 -3.140625 1.046875q-1.046875 1.03125 -1.046875 3.015625l0 28.015625l-10.15625 0l0 -28.015625q0 -2.609375 0.65625 -4.671875q0.671875 -2.078125 1.78125 -3.65625q1.125 -1.59375 2.5625 -2.703125q1.453125 -1.109375 3.03125 -1.8125q1.578125 -0.703125 3.203125 -1.03125q1.625 -0.34375 3.03125 -0.34375l22.921875 0l0 10.15625z" fill-rule="nonzero"/><path fill="#000000" fill-opacity="0.0" d="m12.89924 75.59078l0 0c0 -35.474632 28.757874 -64.232506 64.232506 -64.232506l0 0c17.035515 0 33.373306 6.767333 45.419235 18.813263c12.045929 12.045933 18.813263 28.38372 18.813263 45.41924l0 0c0 35.474632 -28.757866 64.232506 -64.2325 64.232506l0 0c-35.474632 0 -64.232506 -28.757874 -64.232506 -64.232506z" fill-rule="evenodd"/><path stroke="#d8c15e" stroke-width="8.0" stroke-linejoin="round" stroke-linecap="butt" d="m12.89924 75.59078l0 0c0 -35.474632 28.757874 -64.232506 64.232506 -64.232506l0 0c17.035515 0 33.373306 6.767333 45.419235 18.813263c12.045929 12.045933 18.813263 28.38372 18.813263 45.41924l0 0c0 35.474632 -28.757866 64.232506 -64.2325 64.232506l0 0c-35.474632 0 -64.232506 -28.757874 -64.232506 -64.232506z" fill-rule="evenodd"/><path fill="#d8c15e" d="m41.579704 25.128397l21.333164 24.086111l-22.709637 27.52729l-13.075409 -4.1294174l6.1930466 22.710716l27.52729 15.140121l-9.634228 22.0214l-20.646008 -12.3871765l-0.68823624 -19.957771l-15.827275 -35.09681l15.140119 -32.344944z" fill-rule="evenodd"/><path stroke="#d8c15e" stroke-width="4.0" stroke-linejoin="round" stroke-linecap="butt" d="m41.579704 25.128397l21.333164 24.086111l-22.709637 27.52729l-13.075409 -4.1294174l6.1930466 22.710716l27.52729 15.140121l-9.634228 22.0214l-20.646008 -12.3871765l-0.68823624 -19.957771l-15.827275 -35.09681l15.140119 -32.344944z" fill-rule="evenodd"/><path fill="#d8c15e" d="m123.47248 34.762684l-16.51551 12.387173l-9.634232 -5.50589l-12.3871765 20.646008l6.8812866 4.1294136l-9.634232 13.075417l6.19413 7.569519l14.451881 -15.828354l22.0214 9.635307l-18.581299 11.698936l-15.828354 0l-11.010704 14.451881l16.516594 11.698936l6.1941223 13.075401l13.763649 -5.5048065l8.257759 -28.215523l13.763649 -17.204826l1.3753815 -15.140121l-4.9751434 -16.530613z" fill-rule="evenodd"/><path stroke="#d8c15e" stroke-width="4.0" stroke-linejoin="round" stroke-linecap="butt" d="m123.47248 34.762684l-16.51551 12.387173l-9.634232 -5.50589l-12.3871765 20.646008l6.8812866 4.1294136l-9.634232 13.075417l6.19413 7.569519l14.451881 -15.828354l22.0214 9.635307l-18.581299 11.698936l-15.828354 0l-11.010704 14.451881l16.516594 11.698936l6.1941223 13.075401l13.763649 -5.5048065l8.257759 -28.215523l13.763649 -17.204826l1.3753815 -15.140121l-4.9751434 -16.530613z" fill-rule="evenodd"/><path fill="#d8c15e" d="m56.719822 17.557798l11.69894 15.828356l15.828354 -2.7529469l2.752945 -7.569519l-1.3764725 -10.323544z" fill-rule="evenodd"/><path stroke="#d8c15e" stroke-width="4.0" stroke-linejoin="round" stroke-linecap="butt" d="m56.719822 17.557798l11.69894 15.828356l15.828354 -2.7529469l2.752945 -7.569519l-1.3764725 -10.323544z" fill-rule="evenodd"/></g></svg>